{"glyphs":{":":{"x_min":0,"x_max":273,"ha":273,"o":"m 93 -12 q 93 5 93 33 q 94 86 101 90 q 114 99 132 106 q 150 113 157 113 q 168 113 173 103 q 178 93 178 69 q 178 35 161 19 q 145 2 93 -12 z m 93 232 q 93 250 93 277 q 94 330 101 334 q 114 343 132 350 q 150 357 157 357 q 168 357 173 347 q 178 338 178 314 q 178 279 161 262 q 145 246 93 232 z"},"$":{"x_min":0,"x_max":498,"ha":498,"o":"m 225 587 q 176 581 148 555 q 120 530 120 491 q 120 459 141 437 q 161 415 227 383 q 227 440 226 508 q 225 577 225 587 z m 265 284 q 265 224 266 167 q 267 111 268 58 q 318 61 347 91 q 377 121 377 169 q 377 205 352 231 q 327 257 265 284 z m 222 700 l 275 744 l 272 637 q 319 633 403 630 q 413 629 418 629 l 418 480 l 371 466 l 371 479 q 371 539 350 560 q 330 582 271 587 q 270 545 268 490 q 267 435 265 366 q 363 324 406 280 q 449 236 449 178 q 449 108 398 56 q 347 4 271 0 l 274 -81 l 220 -126 l 223 0 l 209 0 q 206 0 155 2 q 104 5 55 6 l 55 195 l 100 210 q 100 119 125 89 q 149 60 224 54 q 226 117 226 178 q 227 240 227 299 q 123 348 86 387 q 49 426 49 482 q 49 548 95 590 q 142 631 223 636 z"},"?":{"x_min":0,"x_max":359,"ha":359,"o":"m 201 102 q 201 86 200 60 q 200 13 193 9 q 178 0 161 -6 q 143 -12 136 -12 q 125 -12 121 -3 q 116 5 116 27 q 116 60 132 74 q 148 89 201 102 z m 207 158 l 172 145 q 163 142 156 140 q 149 138 144 138 q 128 138 116 157 q 103 177 103 205 q 103 226 114 250 q 125 275 160 327 q 166 336 178 353 q 229 427 229 468 q 229 518 185 546 q 141 574 58 578 l 109 648 q 199 644 252 601 q 305 559 305 493 q 305 459 289 426 q 273 392 222 330 q 186 287 176 266 q 165 246 165 228 q 165 208 176 190 q 186 172 207 158 z"},"<":{"x_min":0,"x_max":833,"ha":833,"o":"m 704 559 l 704 497 l 216 298 l 704 100 l 704 37 l 129 273 l 129 323 z"},"'":{"x_min":0,"x_max":170,"ha":170,"o":"m 93 422 l 77 422 l 45 645 q 44 649 44 653 q 44 657 44 664 q 44 688 54 701 q 65 714 85 714 q 105 714 116 701 q 127 688 127 665 q 127 661 125 648 q 125 646 125 645 z"},"=":{"x_min":0,"x_max":833,"ha":833,"o":"m 124 233 l 709 233 l 709 176 l 124 176 z m 124 420 l 709 420 l 709 363 l 124 363 z"},"a":{"x_min":0,"x_max":449,"ha":449,"o":"m 286 204 l 286 255 l 190 214 q 143 194 120 170 q 98 147 98 118 q 98 87 119 69 q 140 50 174 50 q 194 50 215 57 q 236 65 251 78 q 270 95 278 117 q 286 139 286 188 z m 360 168 l 360 128 q 360 70 374 53 q 388 37 427 33 l 418 0 l 286 0 l 286 64 q 255 23 222 6 q 190 -12 146 -12 q 92 -12 57 21 q 21 54 21 103 q 21 147 50 178 q 78 208 159 244 l 286 300 l 286 332 q 286 376 271 391 q 256 405 210 405 q 179 405 141 400 q 103 395 51 383 l 80 446 q 129 458 162 463 q 196 468 219 468 q 262 468 291 458 q 319 448 339 426 q 351 414 355 394 q 360 375 360 334 l 360 280 z"},"L":{"x_min":0,"x_max":505,"ha":505,"o":"m 302 637 l 293 604 q 227 598 207 578 q 187 558 187 466 l 187 454 l 187 118 q 187 115 188 96 q 188 77 189 59 q 221 55 247 53 q 273 51 296 51 q 363 51 397 83 q 430 116 433 185 l 477 202 l 477 0 l 36 0 l 45 33 l 54 33 q 88 33 101 58 q 113 83 113 176 l 113 264 l 113 402 q 113 537 96 568 q 79 599 25 604 l 34 637 z"},"3":{"x_min":0,"x_max":498,"ha":498,"o":"m 27 -90 l 58 -36 q 196 -16 282 55 q 367 126 367 219 q 367 271 337 297 q 307 322 244 322 q 211 322 175 313 q 139 304 91 283 l 111 367 q 149 382 184 390 q 218 397 251 397 q 260 397 270 396 q 280 396 301 393 q 321 419 331 447 q 342 474 342 498 q 342 535 318 553 q 294 572 245 572 q 205 572 154 557 q 103 542 26 505 l 63 596 q 115 622 167 635 q 219 648 268 648 q 338 648 379 615 q 421 583 421 531 q 421 494 403 459 q 385 425 343 385 q 394 369 422 331 q 449 293 449 238 q 449 114 332 22 q 214 -71 27 -90 z"},";":{"x_min":0,"x_max":273,"ha":273,"o":"m 100 -85 q 107 -64 111 -49 q 115 -33 115 -18 q 115 7 104 35 q 94 62 94 68 q 94 83 112 95 q 129 107 149 107 q 165 107 172 92 q 179 78 179 44 q 179 8 160 -23 q 142 -55 102 -88 z m 93 232 q 93 250 93 277 q 94 330 101 334 q 114 343 132 350 q 150 357 157 357 q 168 357 173 347 q 178 338 178 314 q 178 279 161 262 q 145 246 93 232 z"},"J":{"x_min":0,"x_max":302,"ha":302,"o":"m 277 637 l 268 604 l 259 604 q 225 604 212 580 q 200 555 200 467 l 200 373 l 200 188 q 200 163 200 136 q 199 110 199 109 q 199 -62 154 -124 q 108 -186 -8 -224 l -8 -191 q 66 -159 95 -98 q 124 -37 124 144 l 124 471 q 124 559 103 579 q 83 599 12 604 l 21 637 z"},"V":{"x_min":0,"x_max":583,"ha":583,"o":"m 256 637 l 247 604 q 203 603 182 587 q 162 572 162 541 q 162 523 171 484 q 181 445 197 397 l 307 74 l 423 397 q 439 440 448 478 q 457 516 457 535 q 457 570 433 587 q 410 604 361 604 l 353 604 l 362 637 l 573 637 q 543 565 515 493 q 488 420 451 316 l 422 235 q 417 221 396 158 q 375 95 345 0 q 337 -1 322 -3 q 282 -10 261 -12 l 238 53 q 176 226 166 257 l 148 311 q 111 422 84 491 q 57 561 46 575 q 36 589 22 595 q 9 602 -20 605 l -11 637 z"},"\"":{"x_min":0,"x_max":331,"ha":331,"o":"m 253 422 l 238 422 l 206 645 q 206 646 206 648 q 204 659 204 664 q 204 688 215 701 q 226 714 246 714 q 266 714 276 701 q 287 688 287 665 q 287 658 287 654 q 287 649 286 645 z m 93 422 l 77 422 l 46 645 q 45 653 44 658 q 44 662 44 665 q 44 688 55 701 q 65 714 85 714 q 105 714 116 701 q 127 688 127 665 q 127 661 125 648 q 125 646 125 645 z"},"7":{"x_min":0,"x_max":498,"ha":498,"o":"m 206 4 l 84 -59 q 165 78 242 229 q 320 379 407 568 q 326 565 235 563 q 145 562 49 562 l 75 637 q 144 639 263 642 q 444 646 499 648 q 390 422 322 273 q 253 123 206 4 z"},"S":{"x_min":0,"x_max":476,"ha":476,"o":"m 409 486 l 362 471 l 362 489 q 362 549 336 573 q 310 597 247 597 q 186 597 154 573 q 121 548 121 503 q 121 467 146 442 q 170 416 264 369 q 378 312 410 272 q 441 233 441 176 q 441 86 381 37 q 320 -12 209 -12 q 206 -12 153 -10 q 100 -7 47 -5 l 47 192 l 91 207 l 91 200 q 91 105 121 72 q 150 39 231 39 q 293 39 327 70 q 361 101 361 158 q 361 193 340 217 q 320 242 253 276 q 240 283 216 295 q 40 385 40 484 q 40 562 94 605 q 147 648 246 648 q 261 648 316 644 q 371 641 409 639 z"},"}":{"x_min":0,"x_max":500,"ha":500,"o":"m 87 740 l 92 740 q 197 740 237 704 q 277 668 277 571 l 277 467 q 277 390 305 361 q 333 333 414 325 l 414 296 q 334 290 306 260 q 277 231 277 154 l 277 50 q 277 -47 237 -83 q 197 -119 92 -119 l 87 -119 l 87 -94 q 157 -93 182 -68 q 207 -42 207 34 l 207 104 q 207 214 237 255 q 267 295 347 310 q 267 325 237 365 q 207 406 207 516 l 207 586 q 207 662 182 688 q 156 714 87 715 z"},"Z":{"x_min":0,"x_max":534,"ha":534,"o":"m 487 637 l 511 587 q 411 458 317 325 q 223 191 133 53 l 286 53 q 375 53 406 79 q 437 104 455 182 l 501 182 l 456 0 l 49 0 l 26 50 q 135 188 230 321 q 325 454 406 583 l 259 583 q 172 583 140 557 q 108 532 90 453 l 44 453 l 87 637 z"},"x":{"x_min":0,"x_max":487,"ha":487,"o":"m 216 456 l 206 423 q 188 422 178 417 q 168 412 168 403 q 168 385 196 350 q 200 345 203 341 l 240 293 l 271 341 q 277 350 287 363 q 306 390 306 401 q 306 412 296 417 q 287 422 268 423 l 277 456 l 451 456 l 442 423 q 408 421 378 397 q 349 374 309 314 l 270 255 l 379 115 l 379 115 q 442 33 492 33 l 483 0 l 252 0 l 261 33 l 271 33 q 299 33 311 38 q 322 43 322 55 q 322 71 291 112 l 288 115 l 228 192 l 177 115 q 171 106 162 93 q 142 67 142 53 q 142 43 154 38 q 166 33 188 33 l 194 33 l 185 0 l -5 0 l 4 33 q 40 35 69 58 q 99 82 139 142 l 198 230 l 112 341 q 71 393 50 407 q 28 422 2 423 l 11 456 z"},")":{"x_min":0,"x_max":292,"ha":292,"o":"m 26 -121 q 86 -29 116 62 q 146 154 146 246 q 146 341 112 449 q 78 558 13 670 l 44 701 q 51 708 58 712 q 64 717 67 717 q 82 717 105 668 q 112 654 116 646 q 161 554 181 469 q 202 384 202 295 q 202 185 169 82 q 135 -21 67 -121 z"},"&":{"x_min":0,"x_max":567,"ha":567,"o":"m 336 110 l 180 302 q 139 271 120 241 q 102 210 102 174 q 102 123 135 90 q 168 58 222 58 q 253 58 281 71 q 310 84 336 110 z m 432 637 l 403 565 l 228 565 q 208 565 198 560 q 189 555 179 541 q 166 523 160 511 q 155 499 155 486 q 155 465 172 435 q 189 405 232 352 l 381 166 q 397 187 405 212 q 413 237 413 267 q 413 334 374 367 q 335 400 251 404 l 269 453 l 536 453 l 518 404 l 417 404 q 440 375 452 343 q 464 310 464 273 q 464 232 452 196 q 441 160 417 125 q 447 81 482 62 q 518 43 571 43 l 556 0 l 415 0 l 370 66 q 327 25 288 6 q 248 -12 203 -12 q 124 -12 72 33 q 20 78 20 145 q 20 192 52 239 q 83 287 148 337 l 119 380 q 103 404 95 424 q 88 443 88 461 q 88 488 111 528 q 134 568 173 607 q 191 625 209 631 q 227 637 270 637 z"},"_":{"x_min":0,"x_max":500,"ha":500,"o":"m 0 -178 l 500 -178 l 500 -236 l 0 -236 z"},"v":{"x_min":0,"x_max":472,"ha":472,"o":"m 210 456 l 201 423 q 171 417 158 407 q 145 397 145 382 q 145 374 150 358 q 155 342 167 312 l 256 88 l 334 296 q 345 326 350 344 q 355 363 355 376 q 355 401 340 411 q 325 421 284 423 l 294 456 l 453 456 q 398 334 353 220 q 307 106 270 -1 q 255 -5 241 -8 q 227 -11 213 -12 l 90 303 q 87 310 83 322 q 49 409 -10 423 l -1 456 z"},"O":{"x_min":0,"x_max":714,"ha":714,"o":"m 592 318 q 592 445 528 512 q 463 579 341 579 q 222 579 172 520 q 122 460 122 318 q 122 191 187 125 q 251 58 375 58 q 492 58 542 118 q 592 178 592 318 z m 381 648 q 519 648 597 567 q 675 485 675 341 q 675 183 581 85 q 488 -12 335 -12 q 195 -12 117 69 q 39 150 39 295 q 39 454 133 551 q 227 648 381 648 z"},"(":{"x_min":0,"x_max":292,"ha":292,"o":"m 267 717 q 207 625 177 533 q 147 441 147 349 q 147 253 181 146 q 215 38 280 -74 l 249 -105 q 242 -112 235 -116 q 229 -121 226 -121 q 210 -121 185 -67 q 179 -56 176 -50 q 132 41 111 125 q 91 210 91 301 q 91 412 124 514 q 158 617 226 717 z"},"C":{"x_min":0,"x_max":586,"ha":586,"o":"m 526 468 l 481 457 q 479 530 451 558 q 422 586 348 586 q 307 586 269 579 q 231 571 210 560 q 172 540 148 478 q 124 416 124 333 q 124 202 194 127 q 265 53 389 53 q 424 53 462 60 q 499 66 540 79 l 535 20 q 485 3 444 -4 q 404 -12 366 -12 q 220 -12 129 80 q 38 172 38 318 q 38 397 67 463 q 97 530 152 576 q 198 614 259 631 q 320 648 418 648 q 443 648 469 646 q 495 645 526 641 q 526 626 525 597 q 525 567 525 553 q 525 539 525 510 q 526 482 526 468 z"},"W":{"x_min":0,"x_max":860,"ha":860,"o":"m 540 430 l 635 133 l 717 397 l 719 402 q 750 503 750 535 q 750 572 724 589 q 699 605 639 605 q 635 605 626 604 q 618 604 613 604 l 622 637 l 862 637 q 835 576 813 513 q 790 450 765 368 l 697 147 q 691 131 682 92 q 672 52 660 0 l 606 -12 l 579 70 q 545 172 539 194 l 444 498 q 414 400 382 303 q 377 288 376 283 l 291 0 l 236 -12 q 226 26 213 68 q 201 109 181 172 l 141 297 q 132 324 117 373 q 44 604 -10 604 l -12 604 l -3 637 l 280 637 l 271 604 l 245 604 q 197 604 174 587 q 151 569 151 533 q 151 504 185 397 l 185 397 l 269 133 l 363 430 q 376 472 390 524 q 405 575 421 640 l 476 651 q 489 601 504 549 q 519 497 540 430 z"},"A":{"x_min":0,"x_max":593,"ha":593,"o":"m 436 343 l 477 224 q 480 215 485 199 q 539 42 610 33 l 601 0 l 371 0 l 380 33 q 409 35 424 45 q 439 56 439 75 q 439 86 435 104 q 431 121 423 145 l 400 216 l 168 216 l 153 176 q 140 142 135 121 q 130 101 130 87 q 130 58 154 46 q 177 33 234 33 l 225 0 l -11 0 l -2 33 q 23 39 40 59 q 57 79 78 132 l 199 447 q 216 491 232 539 q 248 586 262 638 q 282 639 302 641 q 321 644 340 648 q 365 562 389 485 q 413 409 436 343 z m 384 264 l 288 552 l 184 264 z"},"f":{"x_min":0,"x_max":336,"ha":336,"o":"m 354 690 q 343 690 331 691 q 319 691 298 691 q 229 691 209 671 q 189 652 189 548 l 189 456 l 316 456 l 297 407 l 189 407 l 189 202 q 189 89 209 64 q 230 39 296 33 l 287 0 l 44 0 l 53 33 q 90 38 103 60 q 115 82 115 159 l 115 407 l 43 407 l 61 456 l 115 456 l 115 524 q 115 622 133 661 q 151 699 195 725 q 222 740 259 748 q 297 755 351 755 l 375 755 z"},"Q":{"x_min":0,"x_max":714,"ha":714,"o":"m 706 -109 q 643 -158 612 -176 q 581 -194 562 -194 q 542 -194 430 -159 q 379 -142 349 -133 q 279 -112 241 -103 q 203 -94 185 -94 q 165 -94 144 -104 q 124 -115 98 -138 l 87 -125 q 145 -71 177 -52 q 208 -33 236 -33 q 256 -33 299 -44 q 342 -55 422 -81 q 431 -84 447 -89 q 570 -129 609 -129 q 625 -129 647 -121 q 669 -113 697 -96 z m 592 318 q 592 445 528 512 q 463 579 341 579 q 222 579 172 520 q 122 460 122 318 q 122 191 187 125 q 251 58 375 58 q 492 58 542 118 q 592 178 592 318 z m 381 648 q 519 648 597 567 q 675 485 675 341 q 675 183 581 85 q 488 -12 335 -12 q 195 -12 117 69 q 39 150 39 295 q 39 454 133 551 q 227 648 381 648 z"},"w":{"x_min":0,"x_max":729,"ha":729,"o":"m 203 456 l 194 423 q 164 422 153 415 q 143 407 143 389 q 143 384 144 379 q 145 373 145 372 q 145 369 156 338 q 168 306 176 284 l 240 102 l 328 298 q 335 314 338 330 q 342 346 342 360 q 342 394 325 408 q 309 423 268 423 l 258 423 l 267 456 l 487 456 l 478 423 q 441 417 430 406 q 419 395 419 370 q 419 349 444 277 l 447 269 l 506 100 l 577 279 q 592 316 601 345 q 609 374 609 387 q 609 406 594 415 q 580 423 545 423 l 554 456 l 718 456 q 658 350 608 236 q 558 123 518 0 l 468 -12 q 456 32 446 66 q 435 101 427 122 l 368 283 l 291 122 q 283 104 271 72 q 259 40 246 0 l 192 -12 q 116 261 77 342 q 38 423 -5 423 l -9 423 l 0 456 z"},"-":{"x_min":0,"x_max":247,"ha":247,"o":"m 234 269 l 205 201 l 12 201 l 42 269 z"},"E":{"x_min":0,"x_max":545,"ha":545,"o":"m 470 637 l 470 490 l 425 478 q 422 544 395 570 q 368 596 303 596 q 232 596 211 581 q 189 565 189 499 l 189 466 l 189 363 l 264 363 q 314 363 331 376 q 348 389 351 425 l 388 434 l 388 231 l 351 222 q 346 278 327 296 q 309 314 254 314 l 189 314 l 189 59 q 221 55 247 53 q 274 51 297 51 q 365 51 398 83 q 431 116 434 185 l 478 202 l 478 0 l 38 0 l 47 33 l 56 33 q 90 33 103 58 q 115 83 115 175 l 115 264 l 115 403 q 115 537 98 568 q 81 599 27 604 l 36 637 z"},"s":{"x_min":0,"x_max":409,"ha":409,"o":"m 342 343 l 304 320 q 305 323 305 327 q 305 331 305 337 q 305 381 281 401 q 257 421 203 421 q 163 421 141 404 q 120 386 120 353 q 120 315 215 274 q 232 266 242 262 q 319 227 343 199 q 366 171 366 128 q 366 59 321 23 q 275 -12 186 -12 q 163 -12 121 -7 q 79 -1 59 -1 l 54 -1 l 54 151 l 93 171 q 92 162 92 144 q 92 82 115 58 q 139 35 199 35 q 245 35 270 54 q 295 73 295 108 q 295 155 191 199 q 179 204 172 207 q 98 239 74 267 q 50 295 50 339 q 50 395 92 431 q 133 468 195 468 q 217 468 261 462 q 305 456 328 456 l 342 456 z"},">":{"x_min":0,"x_max":833,"ha":833,"o":"m 129 559 l 704 323 l 704 273 l 129 37 l 129 100 l 617 298 l 129 497 z"},"l":{"x_min":0,"x_max":274,"ha":274,"o":"m 174 556 l 174 126 q 174 64 191 49 q 208 34 258 33 l 249 0 l 29 0 l 38 33 q 75 38 88 60 q 100 82 100 159 l 100 499 q 100 515 101 540 q 101 565 101 574 q 101 635 84 651 q 68 668 9 673 l 19 704 q 56 713 95 727 q 135 740 178 757 q 176 717 175 674 q 174 631 174 556 z"},"8":{"x_min":0,"x_max":498,"ha":498,"o":"m 219 339 q 155 278 126 234 q 98 190 98 152 q 98 104 139 76 q 180 48 252 48 q 324 48 363 70 q 402 93 402 133 q 402 177 358 226 q 314 275 219 339 z m 266 396 q 308 431 332 465 q 355 500 355 527 q 355 562 327 580 q 299 599 246 599 q 189 599 161 584 q 133 569 133 539 q 133 510 166 474 q 199 439 266 396 z m 178 366 q 125 403 96 441 q 68 480 68 517 q 68 576 121 612 q 174 648 262 648 q 341 648 385 621 q 428 594 428 546 q 428 508 396 462 q 363 416 303 370 q 393 313 430 267 q 468 221 468 170 q 468 93 399 40 q 331 -12 225 -12 q 130 -12 73 30 q 16 72 16 139 q 16 182 56 238 q 96 293 178 366 z"},"\\":{"x_min":0,"x_max":293,"ha":293,"o":"m 46 637 l 326 -93 l 274 -93 l -6 637 z"},"e":{"x_min":0,"x_max":468,"ha":468,"o":"m 290 254 q 257 254 211 252 q 166 250 114 247 q 114 245 113 239 q 113 233 113 229 q 113 149 160 104 q 207 58 289 58 q 309 58 336 62 q 363 65 412 75 l 393 10 q 367 -1 335 -7 q 303 -12 267 -12 q 160 -12 99 51 q 37 113 37 222 q 37 331 98 399 q 159 468 255 468 q 335 468 382 414 q 429 360 429 267 l 429 254 z m 119 293 l 210 296 q 227 297 254 297 q 350 300 350 331 q 350 369 318 398 q 286 427 241 427 q 191 427 159 391 q 126 356 119 293 z"},"b":{"x_min":0,"x_max":503,"ha":503,"o":"m -19 673 l -9 704 q 28 713 67 727 q 107 740 150 757 q 148 717 147 674 q 146 631 146 556 l 146 409 q 180 438 214 453 q 248 468 283 468 q 370 468 423 410 q 476 352 476 256 q 476 135 400 62 q 323 -12 196 -12 q 162 -12 134 -7 q 107 -2 95 5 q 82 13 76 30 q 70 47 70 84 q 70 96 71 132 q 72 167 72 192 l 72 499 q 72 515 73 540 q 73 565 73 574 q 73 635 57 651 q 40 668 -19 673 z m 146 262 l 146 120 q 146 68 161 56 q 176 44 224 44 q 309 44 352 91 q 396 139 396 231 q 396 320 361 370 q 325 419 262 419 q 200 419 173 384 q 146 349 146 262 z"},"%":{"x_min":0,"x_max":637,"ha":637,"o":"m 475 287 q 447 287 437 269 q 427 250 427 172 l 427 162 q 427 86 439 63 q 452 39 484 39 q 516 39 526 58 q 537 76 537 162 q 537 241 524 264 q 510 287 475 287 z m 363 152 q 363 243 394 287 q 426 331 491 331 q 551 331 576 297 q 602 262 602 180 q 602 85 571 40 q 539 -6 473 -6 q 413 -6 388 29 q 363 64 363 152 z m 460 642 l 527 654 q 436 493 348 328 q 260 163 175 -6 l 109 -17 q 201 147 289 312 q 376 476 460 642 z m 147 598 q 119 598 109 580 q 99 562 99 484 l 99 474 q 99 398 112 374 q 124 350 156 350 q 187 350 198 368 q 208 386 208 474 q 208 553 195 576 q 182 598 147 598 z m 35 463 q 35 554 67 598 q 98 642 163 642 q 223 642 248 608 q 274 573 274 491 q 274 396 242 350 q 210 305 142 305 q 84 305 60 341 q 35 376 35 463 z"},"m":{"x_min":0,"x_max":832,"ha":832,"o":"m 173 356 q 215 412 259 440 q 303 468 348 468 q 395 468 421 442 q 448 416 455 364 q 494 415 535 441 q 577 468 617 468 q 680 468 706 432 q 731 396 731 264 l 731 244 l 731 128 q 731 70 745 53 q 759 37 798 33 l 789 0 l 580 0 l 589 33 q 631 36 645 57 q 659 79 659 167 l 659 257 q 659 354 643 376 q 627 398 583 398 q 521 398 489 351 q 456 303 456 214 l 456 120 q 456 67 471 51 q 486 35 531 33 l 522 0 l 305 0 l 314 33 q 356 36 370 57 q 384 79 384 167 l 384 270 q 384 353 368 375 q 353 398 312 398 q 245 398 212 347 q 179 295 179 191 l 179 120 q 179 67 195 51 q 210 35 255 33 l 246 0 l 37 0 l 46 33 q 83 38 95 60 q 108 82 108 159 l 108 303 q 108 368 94 381 q 81 395 34 395 l 44 431 q 77 438 109 447 q 141 456 173 468 z"},"#":{"x_min":0,"x_max":769,"ha":769,"o":"m 342 424 l 293 284 l 434 284 l 484 424 z m 380 711 l 445 711 l 363 481 l 503 481 l 585 711 l 649 711 l 568 481 l 718 481 l 698 424 l 547 424 l 498 284 l 660 284 l 639 228 l 478 228 l 397 -1 l 332 -1 l 413 228 l 273 228 l 192 -1 l 128 -1 l 209 228 l 51 228 l 72 284 l 229 284 l 278 424 l 108 424 l 129 481 l 299 481 z"},",":{"x_min":0,"x_max":249,"ha":249,"o":"m 85 -85 q 94 -62 98 -47 q 101 -32 101 -18 q 101 7 91 35 q 80 62 80 68 q 80 83 98 95 q 116 107 136 107 q 151 107 158 93 q 164 79 164 44 q 164 8 146 -24 q 128 -55 88 -88 z"},"n":{"x_min":0,"x_max":573,"ha":573,"o":"m 175 367 q 207 416 250 442 q 294 468 342 468 q 375 468 404 455 q 433 442 449 419 q 461 402 467 377 q 472 352 472 298 l 472 260 l 472 128 q 472 70 486 53 q 500 37 539 33 l 530 0 l 319 0 l 328 33 q 370 36 384 57 q 398 79 398 167 l 398 261 q 398 342 377 374 q 356 406 308 406 q 247 406 214 362 q 182 319 182 236 l 182 120 q 182 65 198 50 q 214 35 266 33 l 257 0 l 37 0 l 46 33 q 83 38 95 60 q 108 82 108 159 l 108 303 q 108 367 94 382 q 81 396 34 398 l 44 431 q 73 437 105 445 q 137 454 175 468 z"},"h":{"x_min":0,"x_max":565,"ha":565,"o":"m 174 572 l 174 378 q 208 422 248 445 q 289 468 334 468 q 368 468 396 455 q 424 442 441 419 q 454 402 459 377 q 464 352 464 298 l 464 260 l 464 128 q 464 70 478 53 q 492 37 531 33 l 522 0 l 311 0 l 320 33 q 362 36 376 57 q 390 79 390 167 l 390 261 q 390 342 369 374 q 349 406 300 406 q 239 406 206 362 q 174 319 174 236 l 174 120 q 174 65 190 50 q 206 35 258 33 l 249 0 l 29 0 l 38 33 q 75 38 88 60 q 100 82 100 159 l 100 499 q 100 515 101 540 q 101 565 101 574 q 101 635 84 651 q 68 668 9 673 l 19 704 q 54 713 94 726 q 133 739 176 757 q 175 705 174 659 q 174 613 174 572 z"},"z":{"x_min":0,"x_max":417,"ha":417,"o":"m 356 456 l 372 420 q 305 331 244 238 q 183 145 125 45 l 245 45 q 286 45 306 65 q 325 86 339 146 l 376 146 l 341 0 l 43 0 l 25 40 q 93 131 155 224 q 216 316 272 411 l 170 411 q 132 411 112 393 q 92 375 83 333 l 47 333 l 76 456 z"},"B":{"x_min":0,"x_max":524,"ha":524,"o":"m 186 468 l 186 373 q 191 373 206 371 q 221 370 230 370 q 297 370 333 400 q 369 429 369 485 q 369 539 338 568 q 308 596 249 596 q 212 596 199 580 q 186 564 186 505 z m 186 212 q 186 146 186 113 q 187 80 187 53 q 213 47 234 45 q 254 42 272 42 q 333 42 367 79 q 402 117 402 181 q 402 249 359 285 q 315 322 235 322 q 217 322 207 321 q 196 321 186 320 z m 38 0 l 47 33 l 56 33 q 90 33 103 58 q 115 83 115 175 l 115 264 l 115 403 q 115 537 98 568 q 81 599 27 604 l 36 637 l 54 637 q 101 637 167 640 q 232 643 251 643 q 343 643 392 604 q 442 565 442 494 q 442 441 416 404 q 391 368 340 348 q 410 332 445 290 q 481 249 481 185 q 481 96 428 45 q 376 -6 284 -6 q 274 -6 206 -3 q 137 0 78 0 z"},"K":{"x_min":0,"x_max":581,"ha":581,"o":"m 269 637 l 259 604 l 254 604 q 217 604 204 581 q 191 558 191 453 l 191 371 l 316 496 q 352 532 361 547 q 370 561 370 573 q 370 584 359 592 q 349 599 326 604 l 335 637 l 548 637 l 539 604 q 504 601 477 587 q 451 574 405 528 l 254 377 q 293 363 344 308 q 395 253 479 132 q 521 71 547 52 q 573 33 605 33 l 612 33 l 603 0 l 463 0 q 383 136 315 220 q 247 304 191 336 l 191 142 q 191 82 213 62 q 236 42 313 33 l 304 0 l 37 0 l 46 33 l 55 33 q 90 33 103 60 q 115 86 115 183 l 115 264 l 115 393 q 115 535 98 567 q 81 599 26 604 l 35 637 z"},"R":{"x_min":0,"x_max":549,"ha":549,"o":"m 559 33 l 550 0 l 427 0 l 400 58 q 304 260 278 293 q 266 308 245 315 q 224 322 190 323 l 190 142 q 190 82 212 62 q 235 42 312 33 l 303 0 l 36 0 l 45 33 l 54 33 q 88 33 101 58 q 113 83 113 176 l 113 264 l 113 402 q 113 537 96 568 q 79 599 25 604 l 34 637 q 64 638 116 639 q 249 642 269 642 q 366 642 414 603 q 462 564 462 485 q 462 426 424 384 q 385 342 318 329 q 368 313 426 194 l 432 181 q 436 173 443 157 q 501 38 559 33 z m 190 468 l 190 372 q 208 371 221 370 q 234 369 243 369 q 309 369 343 399 q 377 428 377 485 q 377 537 343 566 q 309 595 248 595 q 213 595 201 583 q 189 570 189 528 q 189 521 189 501 q 190 481 190 468 z"},"T":{"x_min":0,"x_max":566,"ha":566,"o":"m 539 637 l 539 492 l 505 474 q 500 548 468 571 q 437 594 323 594 q 322 562 321 532 q 321 501 321 462 l 321 183 q 321 78 341 57 q 362 37 433 33 l 424 0 l 126 0 l 133 33 q 204 37 225 57 q 245 78 245 183 l 245 462 q 245 495 245 527 q 244 559 243 594 q 133 594 101 574 q 70 554 61 492 l 27 474 l 27 637 z"},"P":{"x_min":0,"x_max":505,"ha":505,"o":"m 190 182 l 190 160 q 190 75 211 56 q 231 38 301 33 l 292 0 l 36 0 l 45 33 l 54 33 q 88 33 101 58 q 113 83 113 175 l 113 264 l 113 403 q 113 537 96 568 q 79 599 25 604 l 34 637 l 62 637 q 125 637 195 640 q 266 642 274 642 q 368 642 422 591 q 476 540 476 451 q 476 361 415 309 q 353 257 245 257 q 232 257 218 258 q 205 258 190 260 z m 190 466 l 190 325 q 217 322 242 320 q 267 318 288 318 q 342 318 366 350 q 391 381 391 451 q 391 521 359 559 q 327 597 269 597 q 224 597 207 579 q 190 561 190 493 z"},"|":{"x_min":0,"x_max":500,"ha":500,"o":"m 219 764 l 281 764 l 281 -236 l 219 -236 z"},"t":{"x_min":0,"x_max":329,"ha":329,"o":"m 169 456 l 243 456 q 247 456 275 458 q 304 460 323 461 l 305 406 q 276 404 254 403 q 231 402 225 402 l 169 402 l 169 158 q 169 86 188 71 q 207 55 274 55 q 277 55 291 56 q 306 57 317 57 l 298 -1 q 280 -4 263 -5 q 246 -7 231 -7 q 155 -7 125 26 q 95 59 95 185 l 95 201 l 95 402 l 21 402 l 36 442 q 79 453 99 482 q 119 511 121 566 l 169 585 z"},"M":{"x_min":0,"x_max":857,"ha":857,"o":"m 158 187 l 158 174 q 158 74 178 53 q 198 33 264 33 l 255 0 l 31 0 l 40 33 l 46 33 q 83 33 95 58 q 107 82 107 193 l 107 204 l 107 270 l 107 456 q 107 553 90 578 q 72 604 21 604 l 30 637 l 206 637 q 256 505 312 381 q 368 256 430 136 q 486 252 542 376 q 597 500 653 637 l 809 637 l 800 604 l 792 604 q 757 604 744 578 q 732 552 732 457 l 732 367 l 732 232 l 732 205 q 732 86 749 60 q 766 33 819 33 l 810 0 l 555 0 l 563 33 q 625 39 644 60 q 663 81 663 173 l 663 186 l 663 529 q 601 407 542 275 q 483 144 427 0 l 405 -12 q 344 143 282 283 q 220 423 158 550 z"},"g":{"x_min":0,"x_max":441,"ha":441,"o":"m 122 -8 q 106 -24 98 -42 q 91 -59 91 -77 q 91 -120 126 -143 q 161 -165 229 -165 q 302 -165 344 -141 q 386 -117 386 -77 q 386 -45 362 -31 q 338 -16 286 -16 q 275 -16 250 -17 q 224 -17 209 -17 q 173 -17 154 -15 q 135 -13 122 -8 z m 310 297 q 310 367 289 394 q 267 421 216 421 q 163 421 143 395 q 123 369 123 296 q 123 224 145 198 q 167 173 222 173 q 271 173 291 200 q 310 227 310 297 z m 448 455 l 428 400 q 410 400 392 401 q 375 401 357 403 q 369 381 374 358 q 380 336 380 310 q 380 228 327 174 q 273 120 190 120 q 187 120 181 121 q 175 121 172 121 q 152 109 144 101 q 136 92 136 82 q 136 66 155 58 q 174 50 211 50 q 248 50 287 51 q 326 52 328 52 q 383 52 413 25 q 442 -1 442 -51 q 442 -125 371 -178 q 299 -230 191 -230 q 113 -230 68 -197 q 24 -164 24 -106 q 24 -77 39 -48 q 53 -20 84 11 q 70 21 63 31 q 57 42 57 54 q 57 82 121 127 q 127 132 130 134 q 91 151 72 185 q 53 218 53 269 q 53 358 102 413 q 151 468 231 468 q 255 468 279 461 q 302 455 327 440 q 346 443 386 448 q 427 452 448 455 z"},"j":{"x_min":0,"x_max":240,"ha":240,"o":"m 167 236 l 167 -17 q 167 -91 124 -144 q 81 -197 -6 -229 l -6 -202 q 49 -179 71 -123 q 93 -67 93 69 l 93 308 q 93 368 79 382 q 65 396 19 398 l 28 431 q 57 437 92 446 q 128 455 173 468 q 170 412 168 358 q 167 304 167 236 z m 91 509 q 91 524 92 549 q 92 595 99 599 q 111 606 130 612 q 149 618 156 618 q 167 618 171 609 q 176 600 176 579 q 176 548 160 534 q 144 520 91 509 z"},"i":{"x_min":0,"x_max":282,"ha":282,"o":"m 182 236 l 182 120 q 182 65 198 50 q 214 35 266 33 l 257 0 l 37 0 l 46 33 q 83 38 95 60 q 108 82 108 159 l 108 303 q 108 367 94 382 q 81 396 34 398 l 44 431 q 74 437 109 446 q 144 456 184 468 q 184 407 183 328 q 182 250 182 236 z m 104 509 q 104 524 105 549 q 105 595 112 599 q 124 606 143 612 q 162 618 169 618 q 180 618 184 609 q 189 600 189 579 q 189 548 173 534 q 157 520 104 509 z"},"y":{"x_min":0,"x_max":472,"ha":472,"o":"m 229 456 l 220 423 q 217 423 213 424 q 210 424 207 424 q 179 424 166 417 q 154 411 154 396 q 154 377 175 324 q 179 314 181 310 l 266 97 l 321 245 q 346 312 355 342 q 364 371 364 385 q 364 405 350 414 q 335 423 305 423 l 300 423 l 309 456 l 462 456 q 429 388 404 333 q 379 278 367 245 l 246 -79 q 213 -167 174 -198 q 136 -229 68 -229 q 60 -229 50 -228 q 40 -228 27 -226 l 51 -167 q 57 -167 63 -168 q 68 -168 75 -168 q 132 -168 159 -142 q 186 -117 221 -12 l 97 307 q 66 386 48 404 q 29 423 0 423 l 9 456 z"},"@":{"x_min":0,"x_max":986,"ha":986,"o":"m 581 164 q 551 112 513 87 q 476 61 430 61 q 369 61 332 106 q 295 151 295 225 q 295 278 319 331 q 343 383 386 425 q 418 456 457 474 q 495 491 532 491 q 575 491 602 467 q 629 443 640 396 l 666 484 l 736 484 l 653 186 q 653 185 652 184 q 644 155 644 133 q 644 110 656 96 q 669 83 690 83 q 707 83 729 92 q 750 100 770 115 q 830 159 861 228 q 893 297 893 382 q 893 450 869 505 q 844 560 794 604 q 750 643 688 664 q 627 685 558 685 q 467 685 391 656 q 316 628 257 571 q 193 509 161 427 q 128 346 128 247 q 128 162 156 98 q 184 35 244 -16 q 300 -63 372 -88 q 443 -112 528 -112 q 607 -112 683 -86 q 758 -61 827 -11 l 842 -29 q 770 -83 689 -110 q 608 -137 522 -137 q 431 -137 355 -115 q 279 -92 221 -47 q 147 8 109 87 q 71 166 71 262 q 71 362 113 448 q 155 535 235 601 q 299 655 377 682 q 455 709 545 709 q 714 709 815 618 q 916 526 916 374 q 916 297 888 229 q 859 161 808 114 q 780 88 748 75 q 715 61 682 61 q 635 61 609 87 q 584 112 581 164 z m 536 471 q 510 471 488 456 q 466 441 443 407 q 408 354 387 293 q 366 231 366 183 q 366 138 386 111 q 406 85 439 85 q 471 85 500 107 q 530 128 557 172 q 585 218 602 271 q 618 324 618 367 q 618 413 595 442 q 572 471 536 471 z"},".":{"x_min":0,"x_max":249,"ha":249,"o":"m 81 -12 q 82 5 82 33 q 83 85 89 90 q 102 99 121 106 q 140 113 146 113 q 157 113 162 103 q 166 94 166 69 q 166 35 150 19 q 134 2 81 -12 z"},"p":{"x_min":0,"x_max":539,"ha":539,"o":"m 182 53 l 195 49 q 201 47 226 45 q 251 43 280 43 q 354 43 390 93 q 426 142 426 242 q 426 327 397 369 q 369 412 313 412 q 246 412 214 361 q 182 309 182 200 z m 175 373 q 209 421 248 445 q 287 468 334 468 q 410 468 457 410 q 504 352 504 257 q 504 186 477 130 q 450 74 392 27 q 367 6 329 -2 q 292 -11 217 -11 l 182 -11 l 182 -87 q 182 -149 207 -170 q 232 -191 315 -197 l 306 -229 l 28 -229 l 37 -197 q 80 -194 94 -172 q 108 -150 108 -72 l 108 319 q 108 370 95 382 q 82 395 35 398 l 44 431 q 73 437 105 445 q 137 454 175 468 z"},"X":{"x_min":0,"x_max":611,"ha":611,"o":"m 293 637 l 284 604 q 252 600 238 590 q 224 581 224 563 q 224 551 237 525 q 250 500 282 449 l 317 395 l 352 449 q 383 497 396 523 q 409 550 409 563 q 409 581 395 590 q 381 600 350 604 l 359 637 l 600 637 l 591 604 q 516 597 438 484 q 428 470 423 463 l 345 351 l 422 233 q 429 222 442 202 q 550 33 607 33 l 611 33 l 602 0 l 331 0 l 340 33 l 345 33 q 381 33 399 43 q 416 54 416 75 q 416 90 405 116 q 393 142 372 175 l 301 285 l 231 175 q 210 142 198 116 q 187 90 187 75 q 187 53 204 43 q 221 33 257 33 l 262 33 l 253 0 l 0 0 l 9 33 q 69 34 134 131 q 148 152 156 163 l 272 329 l 202 438 q 195 449 182 470 q 100 601 11 604 l 20 637 z"},"*":{"x_min":0,"x_max":500,"ha":500,"o":"m 272 469 l 388 558 l 445 508 l 283 442 l 445 374 l 387 324 l 272 414 l 287 263 l 213 231 l 240 416 l 116 322 l 54 376 l 224 444 l 65 518 l 122 567 l 241 468 l 221 617 l 292 648 z"},"Y":{"x_min":0,"x_max":512,"ha":512,"o":"m 307 320 l 307 164 q 307 78 326 58 q 345 39 411 33 l 402 0 l 128 0 l 137 33 q 196 40 213 60 q 231 80 231 163 l 231 182 l 231 302 l 149 438 q 92 534 59 566 q 25 598 -14 604 l -5 637 l 288 637 l 279 604 l 251 604 q 208 604 190 594 q 173 584 173 561 q 173 540 220 461 l 227 449 l 277 365 q 317 434 352 502 q 386 571 415 638 q 446 643 473 647 q 500 652 526 657 q 455 558 397 469 q 340 381 307 320 z"},"c":{"x_min":0,"x_max":406,"ha":406,"o":"m 367 388 q 331 401 299 407 q 268 413 238 413 q 173 413 144 369 q 115 325 115 229 q 115 141 156 97 q 197 54 282 54 q 298 54 319 56 q 340 58 386 65 l 366 0 q 337 -5 312 -8 q 288 -11 267 -11 q 159 -11 97 50 q 35 111 35 217 q 35 336 101 402 q 167 468 287 468 q 295 468 312 466 q 330 464 355 461 z"},"!":{"x_min":0,"x_max":250,"ha":250,"o":"m 161 105 q 161 89 160 62 q 159 13 153 9 q 139 0 122 -6 q 105 -12 99 -12 q 88 -12 83 -3 q 78 6 78 28 q 78 61 95 76 q 111 92 161 105 z m 97 132 q 94 244 88 361 q 82 477 72 603 l 177 648 q 164 503 158 346 q 152 189 152 187 q 150 163 104 136 z"},"/":{"x_min":0,"x_max":293,"ha":293,"o":"m 301 637 l 21 -93 l -31 -93 l 249 637 z"},"[":{"x_min":0,"x_max":292,"ha":292,"o":"m 272 705 l 247 655 l 168 655 q 165 595 164 528 q 162 460 162 372 l 162 294 l 162 220 q 162 134 164 68 q 165 1 168 -59 l 272 -59 l 247 -109 l 95 -109 q 99 0 100 101 q 102 202 102 294 q 102 383 100 487 q 99 591 95 705 z"},"6":{"x_min":0,"x_max":498,"ha":498,"o":"m 134 414 q 124 376 119 343 q 114 309 114 279 q 114 174 158 111 q 202 48 275 48 q 337 48 362 86 q 386 125 386 233 q 386 336 351 382 q 315 428 235 428 q 214 428 189 425 q 164 421 134 414 z m 356 688 q 282 650 230 595 q 178 540 154 475 l 159 476 q 243 491 268 491 q 362 491 414 434 q 466 376 466 271 q 466 143 406 65 q 345 -12 246 -12 q 150 -12 91 69 q 32 151 32 285 q 32 443 121 562 q 209 680 365 729 z"},"r":{"x_min":0,"x_max":358,"ha":358,"o":"m 108 159 l 108 291 q 108 356 94 371 q 81 385 34 387 l 44 419 q 78 426 110 435 q 142 444 173 456 l 173 333 q 192 396 237 430 q 282 464 352 468 l 319 380 q 306 381 301 382 q 295 382 290 382 q 231 382 207 337 q 182 292 182 186 l 182 120 q 182 65 200 49 q 217 34 274 33 l 265 0 l 37 0 l 46 33 q 83 38 95 60 q 108 82 108 159 z"},"2":{"x_min":0,"x_max":498,"ha":498,"o":"m 443 83 l 420 0 l 34 0 l 34 67 q 211 215 286 310 q 360 404 360 478 q 360 527 329 552 q 298 577 237 577 q 195 577 146 564 q 96 552 40 527 l 78 614 q 125 631 171 639 q 216 648 257 648 q 348 648 399 606 q 450 565 450 492 q 450 421 394 344 q 338 268 116 76 q 187 76 264 78 q 342 79 443 83 z"},"{":{"x_min":0,"x_max":500,"ha":500,"o":"m 413 740 l 413 715 q 344 714 318 688 q 293 662 293 586 l 293 516 q 293 406 263 365 q 233 325 153 310 q 233 295 263 255 q 293 214 293 104 l 293 34 q 293 -42 318 -68 q 343 -93 413 -94 l 413 -119 l 408 -119 q 302 -119 263 -83 q 223 -47 223 50 l 223 154 q 223 231 194 260 q 166 290 86 296 l 86 325 q 167 333 195 361 q 223 390 223 467 l 223 571 q 223 668 263 704 q 302 740 408 740 z"},"9":{"x_min":0,"x_max":498,"ha":498,"o":"m 365 230 q 373 260 377 293 q 381 326 381 369 q 381 472 340 530 q 298 588 225 588 q 161 588 136 549 q 111 511 111 403 q 111 304 147 260 q 183 216 263 216 q 287 216 312 219 q 338 223 365 230 z m 154 -58 q 229 -9 276 46 q 324 102 346 166 q 304 157 275 153 q 245 149 225 149 q 130 149 81 204 q 31 260 31 365 q 31 493 92 570 q 153 648 251 648 q 347 648 406 567 q 465 486 465 354 q 465 198 379 75 q 293 -47 148 -98 z"}," ":{"x_min":0,"x_max":249,"ha":249,"o":""},"I":{"x_min":0,"x_max":306,"ha":306,"o":"m 269 637 l 259 604 l 250 604 q 215 604 203 580 q 191 555 191 467 l 191 373 l 191 259 l 191 248 q 191 101 208 70 q 225 38 280 33 l 271 0 l 37 0 l 46 33 l 55 33 q 90 33 103 60 q 115 86 115 183 l 115 264 l 115 393 q 115 535 98 567 q 81 599 26 604 l 35 637 z"},"H":{"x_min":0,"x_max":681,"ha":681,"o":"m 304 637 l 295 604 q 228 598 208 578 q 189 558 189 471 l 189 454 l 189 373 l 491 373 l 491 465 q 491 559 470 579 q 450 599 379 604 l 388 637 l 645 637 l 636 604 l 627 604 q 592 604 579 579 q 567 553 567 460 l 567 375 l 567 259 l 567 248 q 567 101 584 70 q 601 38 656 33 l 647 0 l 377 0 l 386 33 q 453 39 472 59 q 491 78 491 165 l 491 182 l 491 322 l 189 322 l 189 160 q 189 76 210 57 q 231 38 301 33 l 292 0 l 36 0 l 45 33 l 54 33 q 88 33 101 58 q 113 83 113 176 l 113 264 l 113 402 q 113 537 96 568 q 79 599 25 604 l 34 637 z"},"4":{"x_min":0,"x_max":498,"ha":498,"o":"m 326 421 l 326 544 q 252 453 191 380 q 130 308 74 243 l 323 243 q 325 293 325 338 q 326 383 326 421 z m 395 244 q 409 244 426 245 q 443 247 464 249 l 439 175 l 397 175 q 397 129 399 87 q 400 46 404 6 l 323 -26 q 323 11 324 48 q 324 85 324 86 q 324 105 324 127 q 324 149 323 175 l 51 175 l 20 260 q 76 326 144 408 q 212 489 328 629 l 404 648 q 400 545 398 444 q 396 343 395 244 z"},"~":{"x_min":0,"x_max":833,"ha":833,"o":"m 747 370 l 747 306 q 698 271 651 253 q 604 236 558 236 q 537 236 514 240 q 491 245 465 253 q 450 258 422 268 q 324 303 275 303 q 234 303 190 285 q 146 267 87 225 l 87 290 q 138 326 186 343 q 233 361 276 361 q 303 361 333 355 q 362 349 418 329 q 424 327 435 323 q 515 294 559 294 q 601 294 645 312 q 689 330 747 370 z"},"D":{"x_min":0,"x_max":679,"ha":679,"o":"m 46 33 l 55 33 q 90 33 103 59 q 115 85 115 182 l 115 264 l 115 393 q 115 536 98 567 q 81 599 26 604 l 35 637 q 38 637 44 637 q 97 635 117 635 q 163 635 235 638 q 308 642 335 642 q 478 642 560 553 q 643 464 643 312 q 643 251 625 194 q 606 137 574 96 q 529 40 472 17 q 415 -6 314 -6 q 277 -6 208 -2 q 140 2 109 2 q 95 2 80 1 q 64 1 37 0 z m 190 132 q 190 105 191 89 q 191 72 193 55 q 236 48 268 44 q 299 41 322 41 q 434 41 496 112 q 558 184 558 313 q 558 439 490 518 q 423 596 314 596 q 241 596 216 576 q 190 556 190 468 z"},"^":{"x_min":0,"x_max":1000,"ha":1000,"o":"m 456 714 l 543 714 l 797 438 l 752 438 l 499 651 l 245 438 l 201 438 z"},"0":{"x_min":0,"x_max":498,"ha":498,"o":"m 378 320 q 378 489 349 540 q 320 591 243 591 q 169 591 146 550 q 123 509 123 310 q 123 149 152 99 q 182 48 259 48 q 332 48 355 89 q 378 131 378 320 z m 267 648 q 372 648 417 581 q 462 514 462 352 q 462 163 406 75 q 351 -12 231 -12 q 126 -12 81 55 q 36 123 36 284 q 36 473 92 560 q 147 648 267 648 z"},"F":{"x_min":0,"x_max":510,"ha":510,"o":"m 469 637 l 469 490 l 425 478 q 422 544 396 570 q 370 596 308 596 q 239 596 218 581 q 196 565 196 499 l 196 466 l 196 363 l 269 363 q 317 363 333 376 q 350 389 353 425 l 389 434 l 389 231 l 353 222 q 348 278 329 296 q 311 314 259 314 l 196 314 l 196 142 q 196 82 218 62 q 241 42 318 33 l 309 0 l 45 0 l 54 33 l 63 33 q 98 33 110 58 q 122 83 122 175 l 122 264 l 122 403 q 122 537 105 568 q 88 599 34 604 l 43 637 z"},"`":{"x_min":0,"x_max":500,"ha":500,"o":"m 336 521 l 303 521 l 142 621 q 127 631 119 641 q 112 650 112 661 q 112 676 122 686 q 132 696 147 696 q 157 696 167 690 q 178 684 195 667 z"},"k":{"x_min":0,"x_max":507,"ha":507,"o":"m 174 556 l 174 293 q 233 322 269 351 q 304 381 304 401 q 304 413 298 418 q 292 423 277 423 l 264 423 l 273 456 l 471 456 l 462 423 q 407 420 276 320 q 261 308 253 302 q 307 279 375 162 q 410 100 432 71 q 448 50 464 42 q 479 35 510 33 l 501 0 l 384 0 q 364 33 330 92 q 226 269 174 282 l 174 126 q 174 64 191 49 q 208 34 258 33 l 249 0 l 29 0 l 38 33 q 75 38 88 60 q 100 82 100 159 l 100 499 q 100 515 101 540 q 101 565 101 574 q 101 635 84 651 q 68 668 9 673 l 19 704 q 56 713 95 727 q 135 740 178 757 q 176 717 175 674 q 174 631 174 556 z"},"u":{"x_min":0,"x_max":557,"ha":557,"o":"m 177 257 l 177 195 q 177 113 198 82 q 218 50 267 50 q 325 50 354 85 q 383 120 383 189 l 383 316 q 383 371 367 386 q 351 402 299 404 l 308 436 q 351 442 388 450 q 426 458 460 468 q 458 429 458 388 q 457 347 457 284 l 457 120 q 457 64 469 51 q 480 37 517 33 l 508 0 l 385 0 l 385 71 q 351 28 314 9 q 277 -11 233 -11 q 198 -11 170 1 q 143 13 126 36 q 114 53 108 79 q 103 104 103 158 l 103 196 l 103 306 q 103 365 90 382 q 77 399 39 404 l 48 436 q 80 440 113 448 q 146 457 179 468 q 178 408 177 355 q 177 301 177 257 z"},"]":{"x_min":0,"x_max":292,"ha":292,"o":"m 20 -109 l 44 -59 l 124 -59 q 127 0 128 67 q 130 133 130 223 l 130 302 l 130 377 q 130 463 128 530 q 127 596 124 655 l 20 655 l 44 705 l 197 705 q 193 599 192 498 q 190 396 190 302 q 190 209 192 106 q 193 2 197 -109 z"},"U":{"x_min":0,"x_max":652,"ha":652,"o":"m 309 637 l 300 604 q 266 603 243 598 q 219 593 206 584 q 192 574 186 549 q 180 523 180 464 q 180 451 181 416 q 181 381 181 359 l 181 272 q 181 199 187 162 q 193 125 207 104 q 227 73 259 57 q 292 41 333 41 q 368 41 396 50 q 423 59 444 78 q 468 99 478 131 q 488 163 488 252 l 488 473 q 488 557 470 577 q 453 598 398 604 l 407 637 l 612 637 l 603 604 q 570 604 559 578 q 547 552 547 461 l 547 373 l 547 293 q 547 190 537 146 q 527 101 503 68 q 475 29 427 8 q 380 -12 318 -12 q 267 -12 223 5 q 179 22 150 52 q 125 80 114 117 q 103 154 103 240 l 103 395 q 103 527 88 561 q 73 596 32 604 l 41 637 z"},"o":{"x_min":0,"x_max":505,"ha":505,"o":"m 391 199 q 391 322 356 365 q 320 409 233 409 q 167 409 142 378 q 116 346 116 258 q 116 133 151 91 q 186 48 273 48 q 339 48 365 80 q 391 112 391 199 z m 275 468 q 368 468 418 411 q 469 354 469 249 q 469 126 406 57 q 343 -12 232 -12 q 138 -12 87 45 q 36 102 36 207 q 36 331 99 399 q 162 468 275 468 z"},"N":{"x_min":0,"x_max":691,"ha":691,"o":"m 166 185 q 166 76 189 55 q 213 33 299 33 l 289 0 l 36 0 l 44 33 l 51 33 q 88 33 102 57 q 115 82 115 173 l 115 237 l 115 280 l 115 437 q 115 551 97 577 q 80 603 26 604 l 35 637 l 168 637 q 268 497 359 373 q 450 250 533 143 l 530 452 q 530 562 507 583 q 483 604 398 604 l 408 637 l 661 637 l 651 604 l 646 604 q 608 604 595 581 q 582 558 582 460 l 582 442 l 582 356 l 582 67 q 582 64 582 42 q 583 20 583 0 l 540 -13 q 438 135 345 262 q 252 389 165 501 z"},"+":{"x_min":0,"x_max":833,"ha":833,"o":"m 388 596 l 446 596 l 446 327 l 709 327 l 709 270 l 446 270 l 446 0 l 388 0 l 388 270 l 124 270 l 124 327 l 388 327 z"},"G":{"x_min":0,"x_max":634,"ha":634,"o":"m 536 468 l 490 457 q 489 530 460 558 q 431 586 354 586 q 304 586 261 576 q 218 566 200 552 q 166 526 145 462 q 124 398 124 316 q 124 191 188 118 q 251 46 361 46 q 435 46 459 64 q 484 83 484 151 q 484 205 461 225 q 438 246 379 246 l 359 246 l 369 282 l 623 282 l 613 246 q 580 245 570 231 q 559 218 559 158 l 559 143 l 559 28 q 518 8 467 -2 q 417 -12 362 -12 q 212 -12 125 75 q 38 162 38 310 q 38 395 68 461 q 97 528 155 576 q 202 615 263 631 q 324 648 425 648 q 456 648 483 646 q 511 645 536 641 q 536 626 536 596 q 535 566 535 552 q 535 538 536 510 q 536 482 536 468 z"},"q":{"x_min":0,"x_max":492,"ha":492,"o":"m 344 322 l 344 355 q 344 365 344 385 q 343 406 343 415 l 328 415 q 311 415 285 416 q 259 417 250 417 q 177 417 144 372 q 112 328 112 229 q 112 138 146 88 q 180 38 241 38 q 289 38 316 66 q 344 94 344 143 l 344 212 z m 418 190 l 418 -67 q 418 -148 430 -170 q 443 -192 480 -197 l 471 -229 l 228 -229 l 237 -197 q 303 -191 324 -166 q 344 -141 344 -28 l 344 -14 l 344 42 q 317 15 284 1 q 252 -12 214 -12 q 136 -12 83 51 q 31 113 31 207 q 31 266 54 321 q 78 376 119 415 q 149 443 184 456 q 219 468 272 468 q 281 468 323 467 q 365 466 398 466 l 428 466 q 423 359 421 285 q 418 210 418 190 z"},"d":{"x_min":0,"x_max":535,"ha":535,"o":"m 368 94 l 368 284 q 368 354 337 390 q 307 425 245 425 q 183 425 145 377 q 107 329 107 249 q 107 158 150 104 q 194 50 265 50 q 294 50 321 61 q 347 72 368 94 z m 442 572 l 442 124 q 442 69 456 53 q 470 37 509 33 l 500 0 l 372 0 l 368 47 q 340 17 308 2 q 275 -12 236 -12 q 147 -12 90 52 q 32 116 32 216 q 32 329 93 398 q 154 468 253 468 q 284 468 312 459 q 341 451 368 434 l 368 499 q 368 517 369 543 q 369 569 369 578 q 369 636 353 652 q 336 668 278 673 l 287 704 q 325 714 364 728 q 404 741 445 757 q 443 679 443 633 q 442 586 442 572 z"},"1":{"x_min":0,"x_max":498,"ha":498,"o":"m 294 439 l 294 164 q 294 75 310 56 q 325 38 381 33 l 372 0 l 103 0 l 112 33 q 185 36 202 54 q 220 73 220 164 l 220 442 q 220 524 208 545 q 195 565 161 565 q 150 565 138 563 q 126 562 112 559 l 119 598 q 165 609 210 621 q 255 634 301 648 q 299 593 297 521 q 294 448 294 439 z"},"5":{"x_min":0,"x_max":498,"ha":498,"o":"m 429 569 q 389 566 348 565 q 307 564 258 564 q 249 564 212 564 q 176 565 149 565 l 119 409 q 121 409 125 410 q 171 413 192 413 q 312 413 374 365 q 436 317 436 225 q 436 102 329 16 q 223 -70 46 -88 l 72 -40 q 201 -18 278 51 q 356 120 356 209 q 356 273 311 305 q 266 337 177 337 q 153 337 124 335 q 95 333 60 328 l 122 637 q 133 637 154 638 q 379 641 459 648 z"}}}
